<svg width="20px" height="20px" viewBox="0 0 0.6 0.6" fill="none" xmlns="http://www.w3.org/2000/svg"><path d="M0.084 0.224A0.188 0.188 0 0 1 0.224 0.084c0.05 -0.012 0.102 -0.012 0.152 0a0.188 0.188 0 0 1 0.14 0.14c0.012 0.05 0.012 0.102 0 0.152a0.188 0.188 0 0 1 -0.14 0.14c-0.05 0.012 -0.102 0.012 -0.152 0a0.188 0.188 0 0 1 -0.14 -0.14 0.334 0.334 0 0 1 0 -0.152Z" stroke="green" stroke-width="0.037500000000000006"/><path d="M0.363 0.3h-0.125m0.063 0.063v-0.125" stroke="green" stroke-width="0.037500000000000006" stroke-linecap="round"/></svg>