<svg version="1.1" id="Layer_1" xmlns="http://www.w3.org/2000/svg" xmlns:xlink="http://www.w3.org/1999/xlink" width="15px" height="15px" viewBox="0 0 0.638 0.6" enable-background="new 0 0 34 32" xml:space="preserve"><g><path fill="#828282" d="M0.638 0.572V0.216a0.009 0.009 0 0 0 -0.019 0v0.356a0.009 0.009 0 0 1 -0.009 0.009H0.028A0.009 0.009 0 0 1 0.019 0.572V0.216a0.009 0.009 0 0 0 -0.019 0v0.356c0 0.015 0.013 0.028 0.028 0.028h0.581A0.028 0.028 0 0 0 0.638 0.572"/><path fill="#828282" d="M0.084 0.431a0.009 0.009 0 0 0 0 0.019h0.028v0.066a0.009 0.009 0 0 0 0.019 0V0.45h0.112v0.066a0.009 0.009 0 0 0 0.019 0V0.45H0.375v0.066a0.009 0.009 0 0 0 0.019 0V0.45h0.112v0.066a0.009 0.009 0 0 0 0.019 0V0.45h0.028a0.009 0.009 0 0 0 0 -0.019H0.525v-0.094h0.028a0.009 0.009 0 0 0 0 -0.019H0.525V0.234a0.009 0.009 0 0 0 -0.019 0v0.084H0.394V0.234a0.009 0.009 0 0 0 -0.019 0v0.084H0.263V0.234a0.009 0.009 0 0 0 -0.019 0v0.084H0.131V0.234a0.009 0.009 0 0 0 -0.019 0v0.084H0.084a0.009 0.009 0 0 0 0 0.019h0.028v0.094zm0.422 -0.094v0.094H0.394v-0.094zM0.375 0.337v0.094H0.263v-0.094zm-0.244 0h0.112v0.094H0.131z"/><path fill="#828282" d="M0.534 0.056h0.081C0.617 0.056 0.619 0.056 0.619 0.066v0.084H0.019V0.066A0.009 0.009 0 0 1 0.028 0.056h0.075a0.009 0.009 0 0 0 0 -0.019H0.028A0.028 0.028 0 0 0 0 0.066v0.094a0.009 0.009 0 0 0 0.009 0.009h0.619A0.009 0.009 0 0 0 0.638 0.159v-0.094C0.638 0.045 0.625 0.037 0.614 0.037H0.534a0.009 0.009 0 0 0 0 0.019"/><path fill="#828282" d="M0.422 0.056a0.009 0.009 0 0 0 0 -0.019H0.216a0.009 0.009 0 0 0 0 0.019z"/><path fill="#828282" d="M0.169 0.084V0.009a0.009 0.009 0 0 0 -0.019 0v0.075a0.009 0.009 0 0 0 0.019 0"/><path fill="#828282" d="M0.478 0.094A0.009 0.009 0 0 0 0.488 0.084V0.009a0.009 0.009 0 0 0 -0.019 0v0.075A0.009 0.009 0 0 0 0.478 0.094"/></g></svg>