<svg version="1.1" id="Layer_1" xmlns="http://www.w3.org/2000/svg" xmlns:xlink="http://www.w3.org/1999/xlink" width="15px" height="15px" viewBox="0 0 0.6 0.6" enable-background="new 0 0 32 32" xml:space="preserve"><g><path fill="#828282" d="M0.3 0.6a0.3 0.3 0 1 0 0 -0.6 0.3 0.3 0 0 0 0 0.6m0 -0.581a0.281 0.281 0 1 1 -0.001 0.563A0.281 0.281 0 0 1 0.3 0.019"/><path fill="#828282" d="M0.377 0.408a0.01 0.01 0 0 0 0.013 0 0.01 0.01 0 0 0 0 -0.013L0.3 0.306V0.175a0.01 0.01 0 0 0 -0.019 0v0.134q0 0.004 0.002 0.007z"/><path fill="#828282" cx="4" cy="16" r="1" d="M0.094 0.3A0.019 0.019 0 0 1 0.075 0.319 0.019 0.019 0 0 1 0.056 0.3a0.019 0.019 0 0 1 0.038 0"/><path fill="#828282" cx="28" cy="16" r="1" d="M0.544 0.3A0.019 0.019 0 0 1 0.525 0.319 0.019 0.019 0 0 1 0.506 0.3a0.019 0.019 0 0 1 0.038 0"/><path fill="#828282" cx="16" cy="4" r="1" d="M0.319 0.075A0.019 0.019 0 0 1 0.3 0.094 0.019 0.019 0 0 1 0.281 0.075a0.019 0.019 0 0 1 0.038 0"/><path fill="#828282" cx="16" cy="28" r="1" d="M0.319 0.525A0.019 0.019 0 0 1 0.3 0.544 0.019 0.019 0 0 1 0.281 0.525a0.019 0.019 0 0 1 0.038 0"/><path fill="#828282" cx="8" cy="8" r="1" d="M0.169 0.15A0.019 0.019 0 0 1 0.15 0.169 0.019 0.019 0 0 1 0.131 0.15a0.019 0.019 0 0 1 0.038 0"/><path fill="#828282" cx="24" cy="24" r="1" d="M0.469 0.45A0.019 0.019 0 0 1 0.45 0.469 0.019 0.019 0 0 1 0.431 0.45a0.019 0.019 0 0 1 0.038 0"/><path fill="#828282" cx="25" cy="8" r="1" d="M0.488 0.15a0.019 0.019 0 0 1 -0.019 0.019A0.019 0.019 0 0 1 0.45 0.15a0.019 0.019 0 0 1 0.038 0"/><path fill="#828282" cx="8" cy="24" r="1" d="M0.169 0.45A0.019 0.019 0 0 1 0.15 0.469 0.019 0.019 0 0 1 0.131 0.45a0.019 0.019 0 0 1 0.038 0"/></g></svg>