<svg version="1.1" id="Icons" xmlns="http://www.w3.org/2000/svg" xmlns:xlink="http://www.w3.org/1999/xlink" viewBox="0 0 24 24" xml:space="preserve" width="24" height="24">
    <style type="text/css">
        .st0{fill:none;stroke:currentColor;stroke-width:2;stroke-linecap:round;stroke-linejoin:round;stroke-miterlimit:10;}
        .st1{fill:none;stroke:currentColor;stroke-width:2;stroke-linejoin:round;stroke-miterlimit:10;}
    </style>
    <path class="st0" d="M15.75 3c-1.65 0 -3 1.35 -3 3v7.5l4.5 -2.25h2.25c1.65 0 3 -1.35 3 -3V6c0 -1.65 -1.35 -3 -3 -3h-3.75z"/>
    <path class="st0" x1="21" y1="8" x2="24" y2="8" d="M15.75 6L18 6"/>
    <path class="st0" x1="21" y1="11" x2="22" y2="11" d="M15.75 8.25L16.5 8.25"/>
    <path class="st0" d="M12.75 6.6c-0.45 -0.3 -0.975 -0.525 -1.5 -0.6 -1.2 -0.15 -2.25 0.375 -2.925 1.275 -0.525 -0.15 -0.975 -0.075 -1.575 0.375s-0.975 1.2 -0.975 1.95v2.25c0 1.35 0.675 2.625 1.8 3.3h0c0 1.35 -0.975 2.55 -2.25 2.85 -1.575 0.525 -2.775 1.725 -3.075 3.375 0 0.15 0.15 0.375 0.3 0.375h13.575c0.225 0 0.375 -0.225 0.3 -0.375 -0.3 -1.575 -1.5 -2.85 -3.075 -3.3 -1.275 -0.3 -2.25 -1.5 -2.25 -2.85"/>
</svg>
