<svg version="1.1" id="Layer_1" xmlns="http://www.w3.org/2000/svg" xmlns:xlink="http://www.w3.org/1999/xlink" width="24px" height="24px" viewBox="0 0 3.84 3.84" enable-background="new 0 0 128 128" xml:space="preserve"><g><g><path fill="#546E7A" d="M2.64 0.72H0.48C0.215 0.72 0 0.935 0 1.2v2.16c0 0.265 0.215 0.48 0.48 0.48h2.16c0.265 0 0.48 -0.215 0.48 -0.48V1.2c0 -0.265 -0.215 -0.48 -0.48 -0.48zm0.24 2.64c0 0.132 -0.108 0.24 -0.24 0.24H0.48c-0.132 0 -0.24 -0.108 -0.24 -0.24V1.2c0 -0.132 0.108 -0.24 0.24 -0.24h2.16c0.132 0 0.24 0.108 0.24 0.24v2.16z"/></g></g><path fill="#B0BEC5" d="M0.72 1.68h1.68v-0.24H0.72v0.24z"/><path fill="#B0BEC5" d="M0.72 2.16h1.68v-0.24H0.72v0.24z"/><path fill="#B0BEC5" d="M0.72 2.64h1.68v-0.24H0.72v0.24z"/><path fill="#B0BEC5" d="M0.72 3.12h0.96v-0.24H0.72v0.24z"/><path fill="#CFD8DC" d="M3.36 0H1.2c-0.265 0 -0.48 0.215 -0.48 0.48h0.24c0 -0.132 0.108 -0.24 0.24 -0.24h2.16c0.132 0 0.24 0.108 0.24 0.24v2.16c0 0.132 -0.108 0.24 -0.24 0.24v0.24c0.265 0 0.48 -0.215 0.48 -0.48V0.48c0 -0.265 -0.215 -0.48 -0.48 -0.48z"/></svg>