<svg version="1.1" id="Capa_1" xmlns="http://www.w3.org/2000/svg" xmlns:xlink="http://www.w3.org/1999/xlink" x="0px" y="0px" viewBox="0 0 50 50" style="enable-background:new 0 0 282.568 282.568;" xml:space="preserve" width="50" height="50"><path d="M38.506 45.667a1.327 1.327 0 0 1 -1.327 1.327H12.583a1.327 1.327 0 0 1 -1.327 -1.327v-2.831a1.327 1.327 0 0 1 1.327 -1.327h24.596a1.327 1.327 0 0 1 1.327 1.327zM15.7 8.217c1.435 0 2.604 -1.169 2.604 -2.604a2.608 2.608 0 0 0 -5.21 0c0 1.438 1.169 2.604 2.604 2.604m18.579 0c1.435 0 2.604 -1.169 2.604 -2.604s-1.169 -2.604 -2.604 -2.604a2.606 2.606 0 0 0 0 5.208m13.094 -1.871c-1.448 0 -2.627 1.179 -2.627 2.627s1.179 2.627 2.627 2.627 2.627 -1.179 2.627 -2.627 -1.179 -2.627 -2.627 -2.627M5.21 8.796a2.608 2.608 0 0 0 -5.21 0c0 1.435 1.169 2.604 2.604 2.604s2.604 -1.169 2.604 -2.604m40.75 3.588a1.327 1.327 0 0 0 -1.708 0.446l-9.267 13.888 -0.069 -16.092a1.327 1.327 0 0 0 -2.517 -0.583l-7.481 15.117 -7.481 -15.113a1.327 1.327 0 0 0 -2.517 0.583l-0.069 16.094L5.583 12.829a1.327 1.327 0 0 0 -2.348 1.2l8.758 23.431a1.333 1.333 0 0 0 1.244 0.863h23.356a1.333 1.333 0 0 0 1.244 -0.863l8.758 -23.431a1.327 1.327 0 0 0 -0.64 -1.646" fill="#FFD700"/></svg>