<svg width="24px" height="24px" viewBox="0 -2.953 24 24" version="1.1" xmlns="http://www.w3.org/2000/svg" xmlns:xlink="http://www.w3.org/1999/xlink" preserveAspectRatio="xMidYMid"><g><path d="M5.455 18.005V8.732L2.579 6.101 0 4.641v11.727c0 0.905 0.734 1.636 1.636 1.636h3.818Z" fill="#4285F4"/><path d="M18.545 18.005h3.818c0.906 0 1.636 -0.734 1.636 -1.636V4.641l-2.921 1.672 -2.534 2.419v9.273Z" fill="#34A853"/><path fill="#EA4335" points="58.1818182 93.1404244 54.0077618 54.4932827 58.1818182 17.5040608 128 69.8676972 197.818182 17.5040608 202.487488 52.4960089 197.818182 93.1404244 128 145.504061" d="M5.455 8.732L5.063 5.109L5.455 1.641L12 6.55L18.545 1.641L18.983 4.922L18.545 8.732L12 13.641Z"/><path d="M18.545 1.641V8.732L24 4.641V2.459c0 -2.024 -2.31 -3.177 -3.927 -1.964l-1.527 1.145Z" fill="#FBBC04"/><path d="m0 4.641 2.509 1.882L5.455 8.732V1.641L3.927 0.496C2.307 -0.718 0 0.436 0 2.459v2.182Z" fill="#C5221F"/></g></svg>