<svg xmlns="http://www.w3.org/2000/svg" width="24" height="24" fill="none" viewBox="0 0 24 24" id="google-calendar"><path fill="#fff" d="M18.316 5.684H5.684v12.632h12.632z"/><path fill="#4285F4" d="M8.275 15.483q-0.709 -0.478 -0.977 -1.4l1.095 -0.452q0.15 0.569 0.521 0.881 0.37 0.312 0.896 0.311 0.538 0 0.924 -0.327 0.386 -0.328 0.387 -0.833 0 -0.516 -0.407 -0.843 -0.408 -0.327 -1.02 -0.327h-0.633v-1.085h0.569q0.526 0 0.886 -0.284 0.36 -0.283 0.36 -0.778 0 -0.44 -0.323 -0.703 -0.322 -0.263 -0.816 -0.264 -0.483 -0.001 -0.767 0.258c-0.19 0.172 -0.332 0.39 -0.413 0.633l-1.085 -0.452q0.215 -0.612 0.794 -1.079t1.481 -0.468q0.665 -0.001 1.196 0.258 0.531 0.259 0.833 0.714 0.3 0.457 0.3 1.025 0 0.58 -0.28 0.982 -0.279 0.403 -0.686 0.618v0.065c0.35 0.144 0.655 0.382 0.881 0.686q0.344 0.462 0.344 1.105 0 0.645 -0.327 1.15c-0.218 0.336 -0.52 0.602 -0.901 0.794q-0.576 0.29 -1.294 0.29 -0.83 0.002 -1.538 -0.477M15.007 10.045l-1.204 0.87 -0.602 -0.912 2.159 -1.556h0.828v7.343h-1.181z"/><path fill="#34A853" d="M18.316 18.316H5.684V24h12.632z"/><path fill="#4285F4" d="M18.316 0H1.895A1.895 1.895 0 0 0 0 1.895v16.421h5.684V5.684h12.632z"/><path fill="#188038" d="M0 18.316v3.789A1.895 1.895 0 0 0 1.895 24h3.789V18.316z"/><path fill="#FBBC04" d="M24 5.684H18.316v12.632H24z"/><path fill="#1967D2" d="M24 5.684V1.895A1.895 1.895 0 0 0 22.105 0h-3.789v5.684z"/><path fill="#EA4335" d="M18.316 24 24 18.316H18.316z"/></svg>