<svg xmlns="http://www.w3.org/2000/svg" data-name="Layer 1" viewBox="0 0 24 24" id="calendar" width="24" height="24">
    <!-- Tambahkan border tipis -->
    <path fill="#fff" fill-rule="evenodd" stroke="rgba(0,0,0,0.5)" stroke-width="0.2" d="M18.8 24H5.2A5.19 5.19 0 0 1 0 18.8V5.2A5.19 5.19 0 0 1 5.2 0h13.6a5.19 5.19 0 0 1 5.2 5.2v13.6a5.19 5.19 0 0 1 -5.2 5.2"/>
    <path fill="#ff3b30" d="M8.472 5.127c0.03 0.259 0.285 0.424 0.651 0.424 0.338 0 0.577 -0.17 0.577 -0.411 0 -0.205 -0.155 -0.323 -0.536 -0.407l-0.405 -0.088c-0.567 -0.121 -0.844 -0.411 -0.844 -0.883 0 -0.579 0.472 -0.963 1.189 -0.963 0.685 0 1.17 0.381 1.189 0.931h-0.612c-0.03 -0.254 -0.258 -0.42 -0.573 -0.42 -0.325 0 -0.541 0.157 -0.541 0.401 0 0.196 0.149 0.31 0.513 0.39l0.375 0.08c0.625 0.133 0.894 0.403 0.894 0.883 0 0.621 -0.48 1.004 -1.26 1.004 -0.741 0 -1.222 -0.364 -1.245 -0.939zm4.252 0.106H11.632l-0.239 0.754H10.74l1.08 -3.109h0.765l1.079 3.109h-0.705zm-0.952 -0.487h0.815l-0.386 -1.237h-0.038zm2.841 1.241V3.414H13.68v-0.537h2.516v0.537h-0.933v2.572z"/>
    <path d="M7.423 8.474c1.963 0 3.357 1.349 3.357 3.016 0 1.182 -0.538 2.076 -2.485 4.084l-2.925 3.054v0.03h5.691v0.924H3.929v-0.728L7.794 14.793c1.568 -1.637 1.955 -2.288 1.955 -3.251 0 -1.205 -0.947 -2.159 -2.326 -2.159 -1.447 0 -2.531 0.993 -2.546 2.334h-1c0.015 -1.872 1.523 -3.243 3.546 -3.243m4.979 5.638c0 -3.433 1.493 -5.638 3.963 -5.638 2.478 0 3.956 2.197 3.956 5.63 0 3.455 -1.47 5.653 -3.956 5.653s-3.963 -2.19 -3.963 -5.645m6.88 0c0 -2.872 -1.084 -4.721 -2.917 -4.721 -1.826 0 -2.917 1.864 -2.917 4.713 0 2.902 1.068 4.744 2.917 4.744 1.849 0 2.917 -1.841 2.917 -4.736"/>
</svg>
