<svg xmlns="http://www.w3.org/2000/svg" width="24" height="24" data-name="microsoft outlook" id="microsoft-outlook" viewBox="0 0 24 24"><path fill="#0364b8" d="M21.447 1.5h-12.896a1.053 1.053 0 0 0 -1.051 1.053v1.197l7.267 2.25 7.732 -2.25V2.553a1.053 1.053 0 0 0 -1.053 -1.053" data-name="Path 94"/><path fill="#0a2767" d="M23.738 13.054a8.631 8.631 0 0 0 0.262 -1.054 0.498 0.498 0 0 0 -0.25 -0.432l-0.01 -0.006h-0.003l-8.128 -4.63a1.127 1.127 0 0 0 -1.219 0l-8.128 4.629h-0.003l-0.009 0.005a0.498 0.498 0 0 0 -0.25 0.434 8.631 8.631 0 0 0 0.262 1.054l8.619 6.304Z" data-name="Path 95"/><path fill="#28a8ea" d="M17.997 3.75H12.75l-1.516 2.25 1.516 2.25 5.248 4.499h4.5v-4.5Z" data-name="Path 96"/><path fill="#0078d4" d="M7.5 3.75h5.25v4.5h-5.25Z" data-name="Path 97"/><path fill="#50d9ff" d="M18 3.75h4.5v4.5h-4.5Z" data-name="Path 98"/><path fill="#0364b8" d="m18 12.75 -5.25 -4.5h-5.25v4.5l5.25 4.5 8.123 1.326Z" data-name="Path 99"/><path fill="none" d="M7.523 3.75h14.977" data-name="Path 100"/><path fill="#0078d4" d="M12.75 8.25h5.25v4.5h-5.25Z" data-name="Path 101"/><path fill="#064a8c" d="M7.5 12.75h5.25v4.5h-5.25Z" data-name="Path 102"/><path fill="#0078d4" d="M18 12.75h4.5v4.5h-4.5Z" data-name="Path 103"/><path fill="#0a2767" d="M15.142 18.913 6.299 12.463l0.371 -0.652L14.851 16.47a0.396 0.396 0 0 0 0.315 -0.009l8.2 -4.671 0.372 0.649Z" data-name="Path 104" opacity=".5"/><path fill="#1490df" d="m23.75 12.432 -0.011 0.006 -8.128 4.63a1.122 1.122 0 0 1 -1.095 0.068l2.828 3.799 6.191 1.346v0.003a1.122 1.122 0 0 0 0.465 -0.91V12a0.498 0.498 0 0 1 -0.25 0.433" data-name="Path 105"/><path d="M24 21.375v-0.553l-7.487 -4.265 -0.904 0.515a1.122 1.122 0 0 1 -1.095 0.068l2.83 3.795 6.191 1.347v0.003a1.122 1.122 0 0 0 0.465 -0.91" data-name="Path 106" opacity=".05"/><path d="m23.962 21.662 -8.206 -4.674 -0.146 0.082a1.122 1.122 0 0 1 -1.095 0.069l2.83 3.796 6.189 1.348v0.003a1.127 1.127 0 0 0 0.427 -0.622Z" data-name="Path 107" opacity=".1"/><path fill="#28a8ea" d="M6.263 12.442v-0.008h-0.009l-0.022 -0.015a0.487 0.487 0 0 1 -0.232 -0.42V21.375a1.124 1.124 0 0 0 1.125 1.125h15.75a1.117 1.117 0 0 0 0.278 -0.038 0.508 0.508 0 0 0 0.135 -0.045 0.102 0.102 0 0 0 0.045 -0.015 0.812 0.812 0 0 0 0.173 -0.097c0.015 -0.008 0.022 -0.008 0.03 -0.022Z" data-name="Path 108"/><path d="M13.5 18.501V6.249a1.003 1.003 0 0 0 -1.001 -1h-4.976v5.592l-1.261 0.718h-0.004l-0.009 0.005a0.498 0.498 0 0 0 -0.25 0.435v7.5h6.499a1.003 1.003 0 0 0 1.001 -0.999" data-name="Path 109" opacity=".1"/><path d="M12.75 19.251V7a1.003 1.003 0 0 0 -1 -1h-4.227v4.842l-1.261 0.718h-0.004l-0.009 0.005a0.498 0.498 0 0 0 -0.25 0.435v8.25h5.75a1.003 1.003 0 0 0 1 -0.999" data-name="Path 110" opacity=".2"/><path d="M12.75 17.75V7a1.003 1.003 0 0 0 -1 -1h-4.227v4.842l-1.261 0.718h-0.004l-0.009 0.005a0.498 0.498 0 0 0 -0.25 0.435V18.75h5.75a1.003 1.003 0 0 0 1 -1" data-name="Path 111" opacity=".2"/><path d="M12 17.75V7a1.003 1.003 0 0 0 -1 -1h-3.477v4.842l-1.261 0.718h-0.004l-0.009 0.005a0.498 0.498 0 0 0 -0.25 0.435V18.75h5a1.003 1.003 0 0 0 1 -1" data-name="Path 112" opacity=".2"/><path fill="#0078d4" d="M1 6h10.002a1 1 0 0 1 1 1v10.002a1 1 0 0 1 -1 1h-10.002A1 1 0 0 1 0 17V7a1 1 0 0 1 1 -1" data-name="Path 113"/><path fill="#fff" d="M2.9 10.101a3.138 3.138 0 0 1 1.232 -1.361 3.722 3.722 0 0 1 1.957 -0.491 3.452 3.452 0 0 1 1.809 0.465 3.097 3.097 0 0 1 1.199 1.3 4.214 4.214 0 0 1 0.42 1.913 4.417 4.417 0 0 1 -0.433 1.999 3.178 3.178 0 0 1 -1.234 1.345 3.605 3.605 0 0 1 -1.879 0.478 3.554 3.554 0 0 1 -1.851 -0.47 3.148 3.148 0 0 1 -1.213 -1.302 4.092 4.092 0 0 1 -0.425 -1.889 4.539 4.539 0 0 1 0.418 -1.987m1.312 3.194a2.031 2.031 0 0 0 0.693 0.895 1.807 1.807 0 0 0 1.082 0.326 1.899 1.899 0 0 0 1.156 -0.337 1.955 1.955 0 0 0 0.673 -0.898 3.452 3.452 0 0 0 0.214 -1.249 3.808 3.808 0 0 0 -0.203 -1.265 2 2 0 0 0 -0.649 -0.93 1.792 1.792 0 0 0 -1.145 -0.355 1.879 1.879 0 0 0 -1.108 0.329 2.056 2.056 0 0 0 -0.708 0.902 3.584 3.584 0 0 0 -0.005 2.58Z" data-name="Path 114"/><path fill="none" d="M0 0h24v24H0Z" data-name="Path 115"/></svg>