<svg width="24px" height="24px" viewBox="0 0 0.72 0.72" fill="none" xmlns="http://www.w3.org/2000/svg">
    <path d="M0.301 0.076 0.121 0.194c-0.058 0.038 -0.058 0.122 0 0.16l0.181 0.118c0.032 0.021 0.086 0.021 0.118 0l0.18 -0.118c0.058 -0.038 0.058 -0.122 0 -0.16l-0.18 -0.118c-0.032 -0.022 -0.086 -0.022 -0.118 0Z" stroke="white" stroke-width="0.045" stroke-linecap="round" stroke-linejoin="round"/>
    <path d="m0.169 0.392 0 0.141c0 0.038 0.029 0.079 0.065 0.091l0.096 0.032c0.017 0.005 0.044 0.005 0.061 0l0.096 -0.032c0.036 -0.012 0.065 -0.053 0.065 -0.091v-0.139" stroke="white" stroke-width="0.045" stroke-linecap="round" stroke-linejoin="round"/>
    <path d="M0.642 0.45V0.27" stroke="white" stroke-width="0.045" stroke-linecap="round" stroke-linejoin="round"/>
</svg>
