<svg width="20px" height="20px" viewBox="-0.25 -0.125 25.85 25.85" xmlns="http://www.w3.org/2000/svg" xmlns:xlink="http://www.w3.org/1999/xlink" version="1.1">
  <path fill="var(--primary)" d="M6.775 5.65q-1.175 0 -2.15 0.575t-1.55 1.55 -0.575 2.15v11.45q0 1.175 0.575 2.15t1.55 1.55 2.15 0.575h11.45q1.175 0 2.15 -0.575t1.55 -1.55 0.575 -2.15V9.925q0 -1.175 -0.575 -2.15t-1.55 -1.55 -2.15 -0.575zm10.025 3.125q1 0 1.713 0.7t0.713 1.7 -0.713 1.713T16.8 13.6q-0.875 0 -1.55 -0.575l-4.65 2.375v0.2q0 0.2 -0.025 0.375l4.6 2.35q0.7 -0.625 1.625 -0.625 1 0 1.713 0.713T19.225 20.125t-0.713 1.7 -1.713 0.7 -1.7 -0.7 -0.7 -1.7v-0.15l-4.775 -2.425q-0.625 0.475 -1.425 0.475 -1 0 -1.713 -0.713T5.775 15.6t0.713 -1.7 1.713 -0.7q0.875 0 1.55 0.575l4.65 -2.375v-0.225q0 -1 0.7 -1.7t1.7 -0.7"/>
</svg>
