<svg width="24px" height="24px" viewBox="0 0 24 24" version="1.1" xmlns="http://www.w3.org/2000/svg" xmlns:xlink="http://www.w3.org/1999/xlink" preserveAspectRatio="xMidYMid"><g><path d="M12 0C5.373 0 0 5.373 0 12s5.373 12 12 12 12 -5.373 12 -12S18.627 0 12 0Z" fill="#40B3E0"/><path d="M17.839 6.903 15.696 17.709s-0.3 0.749 -1.124 0.39l-4.946 -3.792 -1.799 -0.869 -3.028 -1.019s-0.465 -0.165 -0.51 -0.525c-0.045 -0.36 0.525 -0.555 0.525 -0.555l12.035 -4.721s0.989 -0.435 0.989 0.285" fill="#FFFFFF"/><path d="M9.245 17.588s-0.144 -0.013 -0.324 -0.583c-0.18 -0.57 -1.094 -3.567 -1.094 -3.567l7.269 -4.616s0.42 -0.255 0.405 0c0 0 0.075 0.045 -0.15 0.255 -0.225 0.21 -5.71 5.141 -5.71 5.141" fill="#D2E5F1"/><path d="m11.522 15.761 -1.956 1.784s-0.153 0.116 -0.32 0.043l0.375 -3.313" fill="#B5CFE4"/></g></svg>