<svg width="24px" height="24px" viewBox="-0.139 0 24 24" version="1.1" xmlns="http://www.w3.org/2000/svg" xmlns:xlink="http://www.w3.org/1999/xlink" preserveAspectRatio="xMidYMid"><g><path d="m6.27 20.555 0.388 0.194c1.616 0.97 3.426 1.422 5.236 1.422 5.688 0 10.342 -4.654 10.342 -10.342 0 -2.715 -1.099 -5.365 -3.038 -7.304 -1.939 -1.939 -4.525 -3.038 -7.304 -3.038 -5.688 0 -10.342 4.654 -10.278 10.407 0 1.939 0.582 3.814 1.551 5.43l0.259 0.388 -1.034 3.814 3.878 -0.97Z" fill="#00E676"/><path d="M20.296 3.49C18.099 1.228 15.061 0 11.958 0 5.365 0 0.065 5.365 0.129 11.893c0 2.068 0.582 4.072 1.551 5.882L0 23.916l6.27 -1.616c1.745 0.97 3.684 1.422 5.624 1.422 6.528 0 11.829 -5.365 11.829 -11.893 0 -3.167 -1.228 -6.141 -3.426 -8.338ZM11.958 21.719c-1.745 0 -3.49 -0.452 -4.977 -1.357l-0.388 -0.194 -3.749 0.97 0.97 -3.684 -0.259 -0.388C0.711 12.475 2.068 6.399 6.722 3.555c4.654 -2.844 10.665 -1.487 13.509 3.167 2.844 4.654 1.487 10.665 -3.167 13.509 -1.487 0.97 -3.297 1.487 -5.107 1.487Zm5.688 -7.175 -0.711 -0.323s-1.034 -0.452 -1.681 -0.776c-0.065 0 -0.129 -0.065 -0.194 -0.065 -0.194 0 -0.323 0.065 -0.452 0.129 0 0 -0.065 0.065 -0.97 1.099 -0.065 0.129 -0.194 0.194 -0.323 0.194h-0.065c-0.065 0 -0.194 -0.065 -0.259 -0.129l-0.323 -0.129c-0.711 -0.323 -1.357 -0.711 -1.875 -1.228 -0.129 -0.129 -0.323 -0.259 -0.452 -0.388 -0.452 -0.452 -0.905 -0.97 -1.228 -1.551l-0.065 -0.129c-0.065 -0.065 -0.065 -0.129 -0.129 -0.259 0 -0.129 0 -0.259 0.065 -0.323 0 0 0.259 -0.323 0.452 -0.517 0.129 -0.129 0.194 -0.323 0.323 -0.452 0.129 -0.194 0.194 -0.452 0.129 -0.646 -0.065 -0.323 -0.84 -2.068 -1.034 -2.456 -0.129 -0.194 -0.259 -0.259 -0.452 -0.323H7.692c-0.129 0 -0.259 0.065 -0.388 0.065l-0.065 0.065c-0.129 0.065 -0.259 0.194 -0.388 0.259 -0.129 0.129 -0.194 0.259 -0.323 0.388 -0.452 0.582 -0.711 1.293 -0.711 2.004 0 0.517 0.129 1.034 0.323 1.487l0.065 0.194c0.582 1.228 1.357 2.327 2.392 3.297l0.259 0.259c0.194 0.194 0.388 0.323 0.517 0.517 1.357 1.164 2.909 2.004 4.654 2.456 0.194 0.065 0.452 0.065 0.646 0.129h0.646c0.323 0 0.711 -0.129 0.97 -0.259 0.194 -0.129 0.323 -0.129 0.452 -0.259l0.129 -0.129c0.129 -0.129 0.259 -0.194 0.388 -0.323 0.129 -0.129 0.259 -0.259 0.323 -0.388 0.129 -0.259 0.194 -0.582 0.259 -0.905v-0.452s-0.065 -0.065 -0.194 -0.129Z" fill="#FFFFFF"/></g></svg>