<svg xmlns="http://www.w3.org/2000/svg" aria-label="Yahoo!" role="img" viewBox="0 0 24 24" fill="#fff" width="24" height="24"><path width="512" height="512" rx="15%" fill="#5f01d1" d="M0.137 0H23.863A0.137 0.137 0 0 1 24 0.137V23.863A0.137 0.137 0 0 1 23.863 24H0.137A0.137 0.137 0 0 1 0 23.863V0.137A0.137 0.137 0 0 1 0.137 0z"/><g fill="#fff"><path d="M9.516 18.938h-2.906l1.172 -2.766 -3.234 -7.734h2.953l1.734 4.453 1.734 -4.453h2.906m2.719 3.563h-3.234l2.906 -6.938h3.234"/><path cx="303" cy="308" r="38" d="M15.984 14.438A1.781 1.781 0 0 1 14.203 16.219A1.781 1.781 0 0 1 12.422 14.438A1.781 1.781 0 0 1 15.984 14.438z"/></g></svg>